<svg width="100" height="100" viewBox="0 0 100 100" fill="none" xmlns="http://www.w3.org/2000/svg">
<rect width="100" height="100" fill="white"/>
<path d="M49.5029 68.5859C42.4717 68.5859 37.7842 65.6562 36.417 61.6523C36.1973 61.0664 36.0752 60.4316 36.0752 59.8457C36.0752 58.0879 37.1982 56.9648 38.8584 56.9648C40.25 56.9648 41.1289 57.5264 41.8125 58.9424C42.9111 61.9941 45.9385 63.3613 49.6982 63.3613C53.9463 63.3613 56.9248 61.2617 56.9248 58.332C56.9248 55.793 55.167 54.2305 50.5771 53.2783L46.793 52.4971C39.7373 51.0566 36.4414 47.7363 36.4414 42.585C36.4414 36.3838 41.8857 32.1846 49.5273 32.1846C55.7529 32.1846 60.5869 34.9678 62.0273 39.6309C62.1738 40.0215 62.2471 40.4854 62.2471 41.0713C62.2471 42.6094 61.1484 43.6592 59.5127 43.6592C58.0479 43.6592 57.1445 43.0244 56.4854 41.6572C55.2891 38.6787 52.7744 37.4092 49.4785 37.4092C45.5723 37.4092 42.7891 39.2646 42.7891 42.2188C42.7891 44.6113 44.5469 46.1494 48.9414 47.0771L52.7256 47.8584C60.1475 49.3965 63.2725 52.375 63.2725 57.5996C63.2725 64.3379 57.9746 68.5859 49.5029 68.5859Z" fill="black"/>
</svg>
